<?xml version="1.0" encoding="UTF-8"?>
<svg id="Layer_1" data-name="Layer 1" xmlns="http://www.w3.org/2000/svg" viewBox="0 0 337.11 152.35">
  <defs>
    <style>
      .cls-1 {
        fill: #e72730;
        fill-rule: evenodd;
        stroke: #e72730;
        stroke-miterlimit: 2.61;
        stroke-width: .22px;
      }

      .cls-2 {
        fill: #444546;
      }

      .cls-3 {
        fill: #1e4482;
      }
    </style>
  </defs>
  <g id="_--Nous_Logo" data-name="--Nous Logo">
    <g>
      <path class="cls-3" d="m114.66,73.9c-4.13,0-.42-3.76-9.76-22.9-.78-1.64-6.05-11.81-7.96-11.81-1.5,0-1.08,6.6-1.08,7.82,0,17.08,2.46,23.26,2.46,26.35,0,.79-1.14.55-1.68.55h-5.57c-1.5,0-3.29,1.15-3.29-21.57,0-29.93,3.11-28.84,4.13-28.84h4.73c2.27,0,6.82,4.85,18.02,25.81.18.3.48,1.09,1.02,1.09.6,0,.48-2.6.48-3.45,0-11.33-3.05-21.38-3.05-22.78,0-.85,1.32-.67,2.46-.67h4.55c1.32,0,4.13-1.09,4.13,28.84,0,22.72-1.8,21.57-3.29,21.57h-6.29Z"/>
      <path class="cls-3" d="m145.56,74.81c-12.1,0-16.83-8.78-16.83-19.26,0-15.57,8.62-32.96,19.82-32.96s19.82,17.39,19.82,32.96c0,10.48-4.73,19.26-16.83,19.26h-5.99Zm13.11-20.6c0-13.39-6.11-21.81-10.12-21.81s-10.12,8.42-10.12,21.81c0,7.09,3.77,9.81,10.12,9.81s10.12-2.73,10.12-9.81Z"/>
      <path class="cls-3" d="m204.67,23.5c1.2,0,3.53.97,3.53,22.78,0,17.81-5.39,28.53-18.2,28.53-11.26,0-18.14-8.78-18.14-26.9,0-19.39,2.27-24.41,3.05-24.41h8.32c.6,0,1.32,0,1.32.79,0,1.39-2.99,7.82-2.99,21.75s4.91,17.99,8.44,17.99c2.99,0,9.46-.79,9.46-17.39s-2.93-21.26-2.93-22.35c0-.97,1.74-.79,2.27-.79h5.87Z"/>
      <path class="cls-3" d="m229.34,30.77c-2.99,0-6.82,1.51-6.82,5.03,0,4.36,5.93,6.06,9.22,7.21,12.57,4.24,15.15,10.36,15.15,16.11,0,7.03-4.97,15.69-17.61,15.69-8.5,0-17.12-4.6-17.12-14.24,0-5.15,3.05-8.18,3.65-8.18,1.02,0,0,12.3,12.87,12.3,4.55,0,8.5-2,8.5-5.75,0-4.42-5.39-6.24-8.86-7.33-13.11-4.12-14.55-10.12-14.55-15.27s3.41-13.75,15.57-13.75c8.68,0,14.85,4.66,14.85,6.42s-3.11,7.21-4.79,7.21c-1.5,0-3.83-5.45-10.06-5.45Z"/>
    </g>
    <g>
      <path class="cls-2" d="m90.85,97.91v-15.83h2.06v15.83h-2.06Z"/>
      <path class="cls-2" d="m96.52,97.91v-15.83h2.12l8.18,12.43v-12.43h1.98v15.83h-2.12l-8.18-12.44v12.44h-1.98Z"/>
      <path class="cls-2" d="m112.37,97.91v-15.83h10.51v1.87h-8.45v4.9h7.31v1.87h-7.31v7.19h-2.06Z"/>
      <path class="cls-2" d="m124.93,90.2c0-2.63.69-4.68,2.08-6.17,1.39-1.49,3.18-2.23,5.38-2.23,1.44,0,2.73.35,3.89,1.05,1.15.7,2.03,1.67,2.64,2.92.61,1.25.91,2.66.91,4.25s-.32,3.04-.96,4.31c-.64,1.27-1.54,2.23-2.71,2.88-1.17.65-2.43.98-3.78.98-1.47,0-2.78-.36-3.93-1.08-1.15-.72-2.03-1.7-2.62-2.95-.59-1.25-.89-2.56-.89-3.95Zm2.12.03c0,1.91.5,3.41,1.51,4.51,1.01,1.1,2.28,1.65,3.8,1.65s2.83-.55,3.83-1.66c1-1.11,1.5-2.68,1.5-4.72,0-1.29-.21-2.41-.64-3.37-.43-.96-1.05-1.71-1.88-2.24-.83-.53-1.75-.79-2.78-.79-1.46,0-2.72.51-3.77,1.53-1.05,1.02-1.58,2.72-1.58,5.1Z"/>
      <path class="cls-2" d="m141.79,92.82l1.95-.17c.09.79.31,1.44.64,1.95.34.51.86.92,1.57,1.23.71.31,1.51.47,2.39.47.79,0,1.48-.12,2.08-.36.6-.24,1.05-.56,1.34-.98.29-.41.44-.87.44-1.36s-.14-.93-.43-1.3-.75-.68-1.4-.93c-.42-.17-1.34-.42-2.77-.77s-2.43-.68-3.01-.99c-.75-.4-1.3-.89-1.66-1.47-.37-.59-.55-1.24-.55-1.97,0-.8.22-1.55.67-2.24.45-.69,1.1-1.22,1.96-1.58.86-.36,1.81-.54,2.86-.54,1.15,0,2.17.19,3.05.57s1.56.93,2.03,1.67c.47.73.73,1.57.77,2.49l-1.98.15c-.11-1-.46-1.76-1.08-2.27-.61-.51-1.52-.77-2.72-.77s-2.16.23-2.73.7c-.57.46-.85,1.02-.85,1.68,0,.57.2,1.04.61,1.4.4.37,1.43.74,3.11,1.13,1.68.39,2.82.72,3.45,1.01.91.43,1.58.96,2.01,1.61.43.65.65,1.4.65,2.25s-.24,1.64-.71,2.38c-.47.74-1.16,1.32-2.05,1.74-.89.41-1.89.62-3,.62-1.41,0-2.59-.21-3.54-.63-.95-.42-1.7-1.05-2.24-1.88-.54-.84-.83-1.79-.86-2.85Z"/>
      <path class="cls-2" d="m161.4,97.91v-6.71l-6.01-9.12h2.51l3.07,4.77c.57.89,1.1,1.78,1.58,2.68.47-.83,1.04-1.76,1.7-2.8l3.02-4.65h2.4l-6.22,9.12v6.71h-2.06Z"/>
      <path class="cls-2" d="m170.82,92.82l1.94-.17c.09.79.31,1.44.64,1.95.34.51.86.92,1.57,1.23.71.31,1.51.47,2.39.47.79,0,1.48-.12,2.08-.36.6-.24,1.05-.56,1.34-.98.29-.41.44-.87.44-1.36s-.14-.93-.43-1.3-.75-.68-1.4-.93c-.42-.17-1.34-.42-2.78-.77-1.43-.35-2.43-.68-3.01-.99-.74-.4-1.3-.89-1.66-1.47-.37-.59-.55-1.24-.55-1.97,0-.8.22-1.55.67-2.24.45-.69,1.1-1.22,1.95-1.58s1.81-.54,2.86-.54c1.16,0,2.17.19,3.05.57.88.38,1.56.93,2.04,1.67.47.73.73,1.57.76,2.49l-1.98.15c-.11-1-.47-1.76-1.08-2.27-.61-.51-1.52-.77-2.72-.77s-2.16.23-2.73.7c-.57.46-.86,1.02-.86,1.68,0,.57.2,1.04.61,1.4.4.37,1.43.74,3.11,1.13,1.68.39,2.83.72,3.45,1.01.91.43,1.58.96,2.01,1.61.43.65.65,1.4.65,2.25s-.24,1.64-.71,2.38c-.47.74-1.16,1.32-2.04,1.74-.89.41-1.89.62-3,.62-1.41,0-2.59-.21-3.54-.63-.95-.42-1.7-1.05-2.24-1.88-.54-.84-.83-1.79-.85-2.85Z"/>
      <path class="cls-2" d="m190.01,97.91v-13.96h-5.13v-1.87h12.35v1.87h-5.16v13.96h-2.06Z"/>
      <path class="cls-2" d="m199.38,97.91v-15.83h11.27v1.87h-9.2v4.85h8.62v1.86h-8.62v5.39h9.57v1.87h-11.63Z"/>
      <path class="cls-2" d="m213.79,97.91v-15.83h3.1l3.69,11.21c.34,1.04.59,1.82.74,2.34.18-.58.45-1.42.83-2.54l3.73-11.01h2.77v15.83h-1.99v-13.25l-4.53,13.25h-1.86l-4.5-13.47v13.47h-1.99Z"/>
      <path class="cls-2" d="m231.28,92.82l1.95-.17c.09.79.31,1.44.64,1.95.34.51.86.92,1.57,1.23.71.31,1.51.47,2.39.47.79,0,1.48-.12,2.08-.36.6-.24,1.05-.56,1.34-.98.29-.41.44-.87.44-1.36s-.14-.93-.43-1.3-.75-.68-1.4-.93c-.42-.17-1.34-.42-2.77-.77s-2.43-.68-3.01-.99c-.75-.4-1.3-.89-1.66-1.47-.37-.59-.55-1.24-.55-1.97,0-.8.22-1.55.67-2.24.45-.69,1.1-1.22,1.96-1.58.86-.36,1.81-.54,2.86-.54,1.15,0,2.17.19,3.05.57s1.56.93,2.03,1.67c.47.73.73,1.57.77,2.49l-1.98.15c-.11-1-.46-1.76-1.08-2.27-.61-.51-1.52-.77-2.72-.77s-2.16.23-2.73.7c-.57.46-.85,1.02-.85,1.68,0,.57.2,1.04.61,1.4.4.37,1.43.74,3.11,1.13,1.68.39,2.82.72,3.45,1.01.91.43,1.58.96,2.01,1.61.43.65.65,1.4.65,2.25s-.24,1.64-.71,2.38c-.47.74-1.16,1.32-2.05,1.74-.89.41-1.89.62-3,.62-1.41,0-2.59-.21-3.54-.63-.95-.42-1.7-1.05-2.24-1.88-.54-.84-.83-1.79-.86-2.85Z"/>
    </g>
    <polygon class="cls-1" points="9.42 111.01 327.69 111.01 327.69 112.1 9.42 112.1 9.42 111.01 9.42 111.01"/>
    <g>
      <path class="cls-3" d="m10.78,139.28v-14.45h1.75v12.75h6.51v1.71h-8.26Z"/>
      <path class="cls-3" d="m25.51,139.28v-14.45h9.56v1.71h-7.81v4.43h7.31v1.7h-7.31v4.92h8.12v1.71h-9.86Z"/>
      <path class="cls-3" d="m45.93,139.28l-5.12-14.45h1.89l3.43,10.5c.28.84.51,1.63.69,2.37.2-.79.44-1.58.71-2.37l3.57-10.5h1.78l-5.17,14.45h-1.79Z"/>
      <path class="cls-3" d="m58.86,139.28v-14.45h9.56v1.71h-7.81v4.43h7.31v1.7h-7.31v4.92h8.12v1.71h-9.86Z"/>
      <path class="cls-3" d="m75.52,139.28v-14.45h5.86c1.18,0,2.07.13,2.69.39.61.26,1.1.72,1.47,1.38.37.66.55,1.38.55,2.18,0,1.03-.3,1.89-.91,2.59-.61.7-1.54,1.15-2.81,1.34.46.24.81.48,1.05.72.51.51.99,1.15,1.45,1.92l2.3,3.93h-2.2l-1.75-3.01c-.51-.87-.93-1.53-1.26-1.99-.33-.46-.63-.78-.89-.97-.26-.18-.53-.31-.8-.38-.2-.05-.52-.07-.97-.07h-2.03v6.42h-1.75Zm1.75-8.08h3.76c.8,0,1.42-.09,1.88-.27.45-.18.79-.47,1.03-.87s.35-.83.35-1.3c0-.68-.23-1.25-.68-1.69s-1.17-.66-2.15-.66h-4.18v4.78Z"/>
      <path class="cls-3" d="m91.74,139.28l5.08-14.45h1.88l5.41,14.45h-1.99l-1.54-4.38h-5.53l-1.45,4.38h-1.86Zm3.81-5.94h4.48l-1.38-4c-.42-1.22-.73-2.21-.94-3-.17.93-.41,1.85-.71,2.76l-1.45,4.24Z"/>
      <path class="cls-3" d="m116.05,133.61v-1.7h5.6s0,5.35,0,5.35c-.86.75-1.75,1.31-2.66,1.69-.92.38-1.85.57-2.81.57-1.3,0-2.48-.31-3.54-.91-1.06-.61-1.86-1.49-2.4-2.64s-.81-2.44-.81-3.86.27-2.72.81-3.94c.54-1.22,1.31-2.13,2.32-2.72,1.01-.59,2.17-.89,3.49-.89.96,0,1.82.17,2.59.51.77.34,1.38.81,1.82,1.41.44.61.77,1.39,1,2.37l-1.58.47c-.2-.74-.44-1.31-.74-1.73-.29-.42-.72-.76-1.26-1.01-.55-.25-1.15-.38-1.82-.38-.8,0-1.49.13-2.07.4-.58.27-1.05.62-1.41,1.05s-.64.91-.83,1.43c-.34.89-.5,1.86-.5,2.91,0,1.29.2,2.37.61,3.23s1,1.51,1.77,1.93c.78.42,1.6.63,2.47.63.76,0,1.5-.16,2.22-.48.72-.32,1.27-.66,1.64-1.02v-2.69h-3.89Z"/>
      <path class="cls-3" d="m128.88,139.28v-14.45h1.75v14.45h-1.75Z"/>
      <path class="cls-3" d="m138.05,139.28v-14.45h1.79l6.94,11.35v-11.35h1.68v14.45h-1.79l-6.94-11.36v11.36h-1.68Z"/>
      <path class="cls-3" d="m161.95,133.61v-1.7h5.6s0,5.35,0,5.35c-.86.75-1.75,1.31-2.66,1.69s-1.85.57-2.81.57c-1.3,0-2.48-.31-3.54-.91s-1.86-1.49-2.4-2.64c-.54-1.15-.81-2.44-.81-3.86s.27-2.72.81-3.94c.54-1.22,1.31-2.13,2.32-2.72,1.01-.59,2.17-.89,3.49-.89.95,0,1.82.17,2.59.51.77.34,1.38.81,1.82,1.41.44.61.77,1.39,1,2.37l-1.58.47c-.2-.74-.44-1.31-.74-1.73-.29-.42-.72-.76-1.26-1.01-.55-.25-1.16-.38-1.82-.38-.8,0-1.49.13-2.07.4-.58.27-1.05.62-1.41,1.05-.36.43-.64.91-.84,1.43-.34.89-.5,1.86-.5,2.91,0,1.29.2,2.37.61,3.23.4.87.99,1.51,1.77,1.93.78.42,1.6.63,2.47.63.76,0,1.5-.16,2.22-.48s1.27-.66,1.64-1.02v-2.69h-3.89Z"/>
      <path class="cls-3" d="m184.27,139.28v-14.45h1.75v14.45h-1.75Z"/>
      <path class="cls-3" d="m193.44,139.28v-14.45h1.79l6.94,11.35v-11.35h1.68v14.45h-1.79l-6.94-11.36v11.36h-1.68Z"/>
      <path class="cls-3" d="m214.51,139.28v-12.75h-4.36v-1.71h10.48v1.71h-4.37v12.75h-1.75Z"/>
      <path class="cls-3" d="m226.82,139.28v-14.45h9.56v1.71h-7.81v4.43h7.31v1.7h-7.31v4.92h8.12v1.71h-9.86Z"/>
      <path class="cls-3" d="m243.39,139.28v-14.45h1.75v12.75h6.51v1.71h-8.26Z"/>
      <path class="cls-3" d="m258.01,139.28v-14.45h1.75v12.75h6.51v1.71h-8.26Z"/>
      <path class="cls-3" d="m272.75,139.28v-14.45h9.56v1.71h-7.81v4.43h7.31v1.7h-7.31v4.92h8.12v1.71h-9.86Z"/>
      <path class="cls-3" d="m298.82,134.21l1.75.48c-.37,1.57-1.03,2.77-1.98,3.59-.95.83-2.12,1.24-3.49,1.24s-2.58-.32-3.48-.95c-.89-.63-1.57-1.55-2.04-2.76-.47-1.2-.7-2.49-.7-3.88,0-1.51.26-2.82.79-3.94.52-1.12,1.27-1.97,2.24-2.55.97-.58,2.04-.87,3.2-.87,1.32,0,2.43.37,3.34,1.1.9.74,1.53,1.77,1.88,3.11l-1.72.44c-.31-1.05-.75-1.82-1.33-2.3-.58-.48-1.32-.72-2.2-.72-1.02,0-1.86.27-2.55.8-.68.53-1.16,1.25-1.44,2.14-.28.9-.41,1.82-.41,2.78,0,1.23.16,2.3.49,3.22.33.92.84,1.6,1.53,2.06s1.44.68,2.24.68c.98,0,1.81-.31,2.49-.93.68-.62,1.14-1.53,1.38-2.75Z"/>
      <path class="cls-3" d="m310.44,139.28v-12.75h-4.36v-1.71h10.48v1.71h-4.37v12.75h-1.75Z"/>
    </g>
    <path class="cls-3" d="m320.74,122.65v-4.21h1.71c.34,0,.61.04.78.11s.32.21.43.4c.11.19.16.4.16.64,0,.3-.09.55-.27.76-.18.21-.45.34-.82.39.14.07.24.14.31.21.15.15.29.34.42.56l.67,1.15h-.64l-.51-.88c-.15-.25-.27-.45-.37-.58-.1-.13-.18-.23-.26-.28-.08-.05-.15-.09-.23-.11-.06-.01-.15-.02-.28-.02h-.59v1.87h-.51Zm.51-2.35h1.1c.23,0,.41-.03.55-.08s.23-.14.3-.25c.07-.11.1-.24.1-.38,0-.2-.06-.36-.2-.49-.13-.13-.34-.19-.63-.19h-1.22v1.39Z"/>
    <path class="cls-3" d="m322.2,124.98c-2.48,0-4.5-2.02-4.5-4.5s2.02-4.5,4.5-4.5,4.51,2.02,4.51,4.5-2.02,4.5-4.51,4.5Zm0-8.44c-2.18,0-3.95,1.77-3.95,3.95s1.77,3.95,3.95,3.95,3.96-1.77,3.96-3.95-1.77-3.95-3.96-3.95Z"/>
  </g>
  <g>
    <path class="cls-3" d="m250.09,25.99v-4.21h1.71c.34,0,.61.04.78.11s.32.21.43.4c.11.19.16.4.16.64,0,.3-.09.55-.27.76-.18.21-.45.34-.82.39.14.07.24.14.31.21.15.15.29.34.42.56l.67,1.15h-.64l-.51-.88c-.15-.25-.27-.45-.37-.58-.1-.13-.18-.23-.26-.28-.08-.05-.15-.09-.23-.11-.06-.01-.15-.02-.28-.02h-.59v1.87h-.51Zm.51-2.35h1.1c.23,0,.41-.03.55-.08s.23-.14.3-.25c.07-.11.1-.24.1-.38,0-.2-.06-.36-.2-.49-.13-.13-.34-.19-.63-.19h-1.22v1.39Z"/>
    <path class="cls-3" d="m251.55,28.33c-2.48,0-4.5-2.02-4.5-4.5s2.02-4.5,4.5-4.5,4.51,2.02,4.51,4.5-2.02,4.5-4.51,4.5Zm0-8.44c-2.18,0-3.95,1.77-3.95,3.95s1.77,3.95,3.95,3.95,3.96-1.77,3.96-3.95-1.77-3.95-3.96-3.95Z"/>
  </g>
</svg>