<?xml version="1.0" encoding="UTF-8"?>
<svg id="Layer_1" data-name="Layer 1" xmlns="http://www.w3.org/2000/svg" viewBox="0 0 337.11 152.35">
  <defs>
    <style>
      .cls-1, .cls-2 {
        fill: #e72730;
      }

      .cls-2 {
        fill-rule: evenodd;
      }

      .cls-3 {
        fill: #444546;
      }

      .cls-4 {
        fill: #1f4481;
      }

      .cls-5 {
        fill: #1e4482;
      }
    </style>
  </defs>
  <g>
    <g>
      <path class="cls-4" d="m114.75,73.9c-4.13,0-.42-3.76-9.75-22.91-.78-1.64-6.04-11.82-7.95-11.82-1.49,0-1.08,6.61-1.08,7.82,0,17.09,2.45,23.27,2.45,26.37,0,.79-1.14.55-1.67.55h-5.56c-1.49,0-3.29,1.15-3.29-21.58,0-29.94,3.11-28.85,4.13-28.85h4.72c2.27,0,6.82,4.85,18,25.82.18.3.48,1.09,1.02,1.09.6,0,.48-2.61.48-3.45,0-11.33-3.05-21.4-3.05-22.79,0-.85,1.32-.67,2.45-.67h4.54c1.32,0,4.13-1.09,4.13,28.85,0,22.73-1.79,21.58-3.29,21.58h-6.28Z"/>
      <path class="cls-4" d="m145.6,74.81c-12.08,0-16.8-8.79-16.8-19.27,0-15.58,8.61-32.97,19.79-32.97s19.79,17.4,19.79,32.97c0,10.49-4.72,19.27-16.8,19.27h-5.98Zm13.1-20.61c0-13.39-6.1-21.82-10.11-21.82s-10.11,8.42-10.11,21.82c0,7.09,3.77,9.82,10.11,9.82s10.11-2.73,10.11-9.82Z"/>
      <path class="cls-4" d="m204.62,23.47c1.2,0,3.53.97,3.53,22.79,0,17.82-5.38,28.55-18.18,28.55-11.24,0-18.12-8.79-18.12-26.91,0-19.4,2.27-24.43,3.05-24.43h8.31c.6,0,1.32,0,1.32.79,0,1.39-2.99,7.82-2.99,21.76,0,13.76,4.9,18,8.43,18,2.99,0,9.45-.79,9.45-17.4s-2.93-21.27-2.93-22.36c0-.97,1.73-.79,2.27-.79h5.86Z"/>
      <path class="cls-4" d="m229.25,30.75c-2.99,0-6.82,1.52-6.82,5.03,0,4.36,5.92,6.06,9.21,7.21,12.56,4.24,15.13,10.36,15.13,16.12,0,7.03-4.96,15.7-17.58,15.7-8.49,0-17.1-4.61-17.1-14.24,0-5.15,3.05-8.18,3.65-8.18,1.02,0,0,12.3,12.86,12.3,4.54,0,8.49-2,8.49-5.76,0-4.42-5.38-6.24-8.85-7.33-13.1-4.12-14.53-10.12-14.53-15.27s3.41-13.76,15.55-13.76c8.67,0,14.83,4.67,14.83,6.42s-3.11,7.21-4.78,7.21c-1.49,0-3.83-5.45-10.05-5.45Z"/>
    </g>
    <g>
      <polygon class="cls-2" points="9.66 110.96 327.45 110.96 327.45 112.05 9.66 112.05 9.66 110.96 9.66 110.96"/>
      <path class="cls-1" d="m327.69,112.29H9.42v-1.56h318.27v1.56Zm-317.79-.48h317.32v-.61H9.9v.61Z"/>
    </g>
    <g>
      <path class="cls-5" d="m11.01,139.18v-14.43h1.75v12.73h6.5v1.7h-8.25Z"/>
      <path class="cls-5" d="m25.73,139.18v-14.43h9.54v1.7h-7.8v4.42h7.3v1.69h-7.3v4.91h8.1v1.7h-9.85Z"/>
      <path class="cls-5" d="m46.11,139.18l-5.11-14.43h1.89l3.43,10.48c.28.84.51,1.63.69,2.36.2-.79.44-1.57.71-2.36l3.56-10.48h1.78l-5.17,14.43h-1.79Z"/>
      <path class="cls-5" d="m59.02,139.18v-14.43h9.54v1.7h-7.8v4.42h7.3v1.69h-7.3v4.91h8.1v1.7h-9.85Z"/>
      <path class="cls-5" d="m75.66,139.18v-14.43h5.85c1.18,0,2.07.13,2.68.39s1.1.72,1.47,1.37c.37.66.55,1.38.55,2.17,0,1.03-.3,1.89-.91,2.59-.6.7-1.54,1.15-2.81,1.34.46.24.81.48,1.05.72.51.51.99,1.15,1.45,1.92l2.29,3.93h-2.2l-1.75-3c-.51-.87-.93-1.53-1.26-1.99s-.63-.78-.89-.97c-.26-.18-.53-.31-.8-.38-.2-.05-.52-.07-.97-.07h-2.03v6.41h-1.75Zm1.75-8.06h3.76c.8,0,1.42-.09,1.87-.27.45-.18.79-.47,1.03-.87.23-.4.35-.83.35-1.3,0-.68-.23-1.24-.68-1.68s-1.17-.66-2.15-.66h-4.18v4.77Z"/>
      <path class="cls-5" d="m91.85,139.18l5.07-14.43h1.88l5.4,14.43h-1.99l-1.54-4.37h-5.52l-1.45,4.37h-1.86Zm3.81-5.93h4.47l-1.38-4c-.42-1.21-.73-2.21-.94-2.99-.17.92-.41,1.84-.71,2.76l-1.45,4.23Z"/>
      <path class="cls-5" d="m116.12,133.52v-1.69h5.59s0,5.34,0,5.34c-.86.75-1.74,1.31-2.66,1.69-.91.38-1.85.57-2.81.57-1.3,0-2.48-.3-3.53-.91-1.06-.61-1.86-1.48-2.4-2.63-.54-1.15-.81-2.43-.81-3.85s.27-2.72.81-3.93c.54-1.22,1.31-2.12,2.32-2.71,1.01-.59,2.17-.89,3.48-.89.95,0,1.82.17,2.59.51.77.34,1.37.81,1.81,1.41.44.6.77,1.39,1,2.36l-1.57.47c-.2-.73-.44-1.31-.74-1.73s-.71-.75-1.26-1.01-1.15-.38-1.82-.38c-.8,0-1.49.13-2.07.4-.58.27-1.05.62-1.41,1.05s-.63.91-.83,1.43c-.34.89-.5,1.86-.5,2.9,0,1.29.2,2.36.61,3.23s1,1.51,1.77,1.93c.77.42,1.6.63,2.47.63.75,0,1.49-.16,2.21-.48.72-.32,1.27-.66,1.64-1.02v-2.69h-3.88Z"/>
      <path class="cls-5" d="m128.94,139.18v-14.43h1.75v14.43h-1.75Z"/>
      <path class="cls-5" d="m138.1,139.18v-14.43h1.79l6.93,11.33v-11.33h1.67v14.43h-1.79l-6.93-11.34v11.34h-1.67Z"/>
      <path class="cls-5" d="m161.96,133.52v-1.69h5.59s0,5.34,0,5.34c-.86.75-1.74,1.31-2.66,1.69s-1.85.57-2.81.57c-1.3,0-2.48-.3-3.53-.91s-1.86-1.48-2.4-2.63c-.54-1.15-.81-2.43-.81-3.85s.27-2.72.8-3.93c.54-1.22,1.31-2.12,2.32-2.71,1.01-.59,2.17-.89,3.49-.89.95,0,1.82.17,2.59.51.77.34,1.38.81,1.81,1.41s.77,1.39,1,2.36l-1.58.47c-.2-.73-.44-1.31-.74-1.73s-.71-.75-1.26-1.01c-.55-.25-1.15-.38-1.82-.38-.8,0-1.49.13-2.07.4-.58.27-1.05.62-1.41,1.05-.36.43-.63.91-.83,1.43-.33.89-.5,1.86-.5,2.9,0,1.29.2,2.36.61,3.23.4.87.99,1.51,1.77,1.93.77.42,1.6.63,2.47.63.76,0,1.49-.16,2.22-.48s1.27-.66,1.64-1.02v-2.69h-3.88Z"/>
      <path class="cls-5" d="m184.24,139.18v-14.43h1.75v14.43h-1.75Z"/>
      <path class="cls-5" d="m193.4,139.18v-14.43h1.79l6.93,11.33v-11.33h1.68v14.43h-1.79l-6.93-11.34v11.34h-1.68Z"/>
      <path class="cls-5" d="m214.44,139.18v-12.73h-4.35v-1.7h10.46v1.7h-4.36v12.73h-1.75Z"/>
      <path class="cls-5" d="m226.73,139.18v-14.43h9.54v1.7h-7.8v4.42h7.3v1.69h-7.3v4.91h8.1v1.7h-9.85Z"/>
      <path class="cls-5" d="m243.27,139.18v-14.43h1.75v12.73h6.5v1.7h-8.25Z"/>
      <path class="cls-5" d="m257.88,139.18v-14.43h1.75v12.73h6.5v1.7h-8.25Z"/>
      <path class="cls-5" d="m272.59,139.18v-14.43h9.54v1.7h-7.8v4.42h7.3v1.69h-7.3v4.91h8.1v1.7h-9.85Z"/>
      <path class="cls-5" d="m298.62,134.12l1.75.48c-.37,1.57-1.03,2.77-1.98,3.59-.95.82-2.11,1.24-3.49,1.24s-2.58-.32-3.47-.95c-.89-.63-1.57-1.55-2.03-2.75-.47-1.2-.7-2.49-.7-3.87,0-1.5.26-2.81.79-3.93.52-1.12,1.27-1.97,2.24-2.55.97-.58,2.04-.87,3.2-.87,1.32,0,2.43.37,3.33,1.1s1.53,1.77,1.88,3.1l-1.72.44c-.3-1.05-.75-1.81-1.33-2.29-.58-.48-1.31-.72-2.2-.72-1.01,0-1.86.27-2.54.8-.68.53-1.16,1.25-1.43,2.14-.28.9-.41,1.82-.41,2.77,0,1.23.16,2.3.49,3.21.33.92.83,1.6,1.52,2.05s1.44.68,2.24.68c.98,0,1.81-.31,2.49-.93.68-.62,1.14-1.53,1.38-2.75Z"/>
      <path class="cls-5" d="m310.23,139.18v-12.73h-4.35v-1.7h10.46v1.7h-4.36v12.73h-1.75Z"/>
    </g>
    <path class="cls-5" d="m320.52,122.58v-4.21h1.71c.34,0,.6.04.78.11.18.08.32.21.43.4.11.19.16.4.16.63,0,.3-.09.55-.27.75-.18.21-.45.34-.82.39.14.07.24.14.31.21.15.15.29.34.42.56l.67,1.15h-.64l-.51-.88c-.15-.25-.27-.45-.37-.58-.1-.13-.18-.23-.26-.28-.08-.06-.15-.09-.23-.11-.06-.02-.15-.02-.28-.02h-.59v1.87h-.51Zm.51-2.35h1.09c.23,0,.41-.03.54-.08.13-.05.23-.14.3-.25.07-.11.1-.24.1-.38,0-.2-.06-.36-.2-.49s-.34-.19-.63-.19h-1.22v1.39Z"/>
    <path class="cls-5" d="m321.97,124.91c-2.48,0-4.5-2.01-4.5-4.49s2.02-4.49,4.5-4.49,4.5,2.01,4.5,4.49-2.02,4.49-4.5,4.49Zm0-8.43c-2.18,0-3.95,1.77-3.95,3.94s1.77,3.94,3.95,3.94,3.95-1.77,3.95-3.94-1.77-3.94-3.95-3.94Z"/>
    <g>
      <path class="cls-3" d="m90.87,97.27v-13.79h1.8v13.79h-1.8Z"/>
      <path class="cls-3" d="m95.82,97.27v-13.79h1.84l7.13,10.83v-10.83h1.72v13.79h-1.84l-7.13-10.84v10.84h-1.72Z"/>
      <path class="cls-3" d="m109.63,97.27v-13.79h9.16v1.63h-7.36v4.27h6.37v1.63h-6.37v6.27h-1.8Z"/>
      <path class="cls-3" d="m120.57,90.55c0-2.29.6-4.08,1.82-5.38,1.21-1.3,2.77-1.94,4.69-1.94,1.25,0,2.38.3,3.39.91,1.01.61,1.77,1.46,2.3,2.55s.79,2.32.79,3.7-.28,2.65-.83,3.76c-.56,1.1-1.34,1.94-2.36,2.51-1.02.57-2.12.85-3.3.85-1.28,0-2.42-.32-3.43-.94-1.01-.63-1.77-1.48-2.29-2.57s-.78-2.23-.78-3.44Zm1.85.03c0,1.66.44,2.97,1.32,3.93s1.98,1.43,3.31,1.43,2.46-.48,3.34-1.45c.87-.97,1.31-2.34,1.31-4.11,0-1.12-.19-2.1-.56-2.94-.37-.84-.92-1.49-1.64-1.95s-1.53-.69-2.42-.69c-1.27,0-2.37.44-3.28,1.33-.92.89-1.37,2.37-1.37,4.45Z"/>
      <path class="cls-3" d="m135.26,92.83l1.69-.15c.08.69.27,1.25.56,1.7.29.44.75.8,1.36,1.07.62.27,1.31.41,2.08.41.69,0,1.29-.1,1.81-.31.53-.21.92-.49,1.17-.85.26-.36.38-.75.38-1.18s-.12-.81-.37-1.13c-.25-.32-.65-.59-1.22-.81-.36-.14-1.17-.37-2.42-.67-1.25-.3-2.12-.59-2.62-.86-.65-.35-1.13-.77-1.45-1.28s-.48-1.08-.48-1.72c0-.69.2-1.35.58-1.95s.96-1.06,1.7-1.38c.75-.32,1.58-.47,2.49-.47,1.01,0,1.89.17,2.66.49.77.33,1.36.82,1.77,1.45.41.64.64,1.36.67,2.17l-1.72.13c-.09-.87-.41-1.53-.94-1.98-.53-.45-1.32-.67-2.37-.67s-1.88.2-2.38.61c-.5.41-.75.89-.75,1.46,0,.5.18.91.53,1.22.35.32,1.25.65,2.71.98,1.46.34,2.46.63,3,.88.79.37,1.37.84,1.75,1.41.38.57.56,1.22.56,1.96s-.21,1.42-.62,2.07-1.01,1.15-1.78,1.51c-.78.36-1.65.54-2.62.54-1.23,0-2.26-.18-3.09-.55-.83-.36-1.48-.91-1.95-1.64-.47-.73-.72-1.56-.75-2.48Z"/>
      <path class="cls-3" d="m147.98,90.55c0-2.29.6-4.08,1.81-5.38s2.77-1.94,4.69-1.94c1.25,0,2.38.3,3.39.91,1.01.61,1.77,1.46,2.3,2.55s.79,2.32.79,3.7-.28,2.65-.83,3.76c-.56,1.1-1.34,1.94-2.36,2.51-1.02.57-2.12.85-3.3.85-1.28,0-2.42-.32-3.43-.94s-1.77-1.48-2.29-2.57c-.52-1.09-.78-2.23-.78-3.44Zm1.85.03c0,1.66.44,2.97,1.32,3.93s1.98,1.43,3.31,1.43,2.47-.48,3.34-1.45c.88-.97,1.31-2.34,1.31-4.11,0-1.12-.19-2.1-.56-2.94-.37-.84-.92-1.49-1.64-1.95-.72-.46-1.53-.69-2.42-.69-1.27,0-2.37.44-3.28,1.33-.92.89-1.38,2.37-1.38,4.45Z"/>
      <path class="cls-3" d="m163.21,97.27v-13.79h1.8v12.17h6.69v1.63h-8.48Z"/>
      <path class="cls-3" d="m182.74,83.47h1.8v7.97c0,1.39-.15,2.49-.46,3.3-.31.82-.87,1.48-1.67,1.99-.81.51-1.86.77-3.17.77s-2.31-.22-3.12-.67c-.81-.44-1.39-1.09-1.73-1.93-.35-.85-.52-2-.52-3.46v-7.97h1.8v7.96c0,1.2.11,2.08.33,2.65s.6,1.01,1.13,1.31,1.19.46,1.96.46c1.32,0,2.26-.3,2.82-.91.56-.61.84-1.78.84-3.51v-7.96Z"/>
      <path class="cls-3" d="m190.98,97.27v-12.17h-4.47v-1.63h10.76v1.63h-4.49v12.17h-1.8Z"/>
      <path class="cls-3" d="m199.42,97.27v-13.79h1.8v13.79h-1.8Z"/>
      <path class="cls-3" d="m203.84,90.55c0-2.29.6-4.08,1.81-5.38s2.77-1.94,4.69-1.94c1.25,0,2.38.3,3.39.91,1.01.61,1.77,1.46,2.3,2.55s.79,2.32.79,3.7-.28,2.65-.83,3.76c-.56,1.1-1.34,1.94-2.36,2.51-1.02.57-2.12.85-3.3.85-1.28,0-2.42-.32-3.43-.94s-1.77-1.48-2.29-2.57c-.52-1.09-.78-2.23-.78-3.44Zm1.85.03c0,1.66.44,2.97,1.32,3.93s1.98,1.43,3.31,1.43,2.47-.48,3.34-1.45c.88-.97,1.31-2.34,1.31-4.11,0-1.12-.19-2.1-.56-2.94-.37-.84-.92-1.49-1.64-1.95-.72-.46-1.53-.69-2.42-.69-1.27,0-2.37.44-3.28,1.33-.92.89-1.38,2.37-1.38,4.45Z"/>
      <path class="cls-3" d="m219.12,97.27v-13.79h1.84l7.13,10.83v-10.83h1.72v13.79h-1.84l-7.13-10.84v10.84h-1.72Z"/>
      <path class="cls-3" d="m232.22,92.83l1.69-.15c.08.69.27,1.25.56,1.7.29.44.75.8,1.36,1.07.62.27,1.31.41,2.08.41.69,0,1.29-.1,1.81-.31.53-.21.92-.49,1.17-.85.26-.36.38-.75.38-1.18s-.12-.81-.37-1.13c-.25-.32-.65-.59-1.22-.81-.36-.14-1.17-.37-2.42-.67-1.25-.3-2.12-.59-2.62-.86-.65-.35-1.13-.77-1.45-1.28s-.48-1.08-.48-1.72c0-.69.2-1.35.58-1.95s.96-1.06,1.7-1.38c.75-.32,1.58-.47,2.49-.47,1.01,0,1.89.17,2.66.49.77.33,1.36.82,1.77,1.45.41.64.64,1.36.67,2.17l-1.72.13c-.09-.87-.41-1.53-.94-1.98-.53-.45-1.32-.67-2.37-.67s-1.88.2-2.38.61c-.5.41-.75.89-.75,1.46,0,.5.18.91.53,1.22.35.32,1.25.65,2.71.98,1.46.34,2.46.63,3,.88.79.37,1.37.84,1.75,1.41.38.57.56,1.22.56,1.96s-.21,1.42-.62,2.07-1.01,1.15-1.78,1.51c-.78.36-1.65.54-2.62.54-1.23,0-2.26-.18-3.09-.55-.83-.36-1.48-.91-1.95-1.64-.47-.73-.72-1.56-.75-2.48Z"/>
    </g>
  </g>
  <g>
    <path class="cls-5" d="m250.09,25.99v-4.21h1.71c.34,0,.61.04.78.11s.32.21.43.4c.11.19.16.4.16.64,0,.3-.09.55-.27.76-.18.21-.45.34-.82.39.14.07.24.14.31.21.15.15.29.34.42.56l.67,1.15h-.64l-.51-.88c-.15-.25-.27-.45-.37-.58-.1-.13-.18-.23-.26-.28-.08-.05-.15-.09-.23-.11-.06-.01-.15-.02-.28-.02h-.59v1.87h-.51Zm.51-2.35h1.1c.23,0,.41-.03.55-.08s.23-.14.3-.25c.07-.11.1-.24.1-.38,0-.2-.06-.36-.2-.49-.13-.13-.34-.19-.63-.19h-1.22v1.39Z"/>
    <path class="cls-5" d="m251.55,28.33c-2.48,0-4.5-2.02-4.5-4.5s2.02-4.5,4.5-4.5,4.51,2.02,4.51,4.5-2.02,4.5-4.51,4.5Zm0-8.44c-2.18,0-3.95,1.77-3.95,3.95s1.77,3.95,3.95,3.95,3.96-1.77,3.96-3.95-1.77-3.95-3.96-3.95Z"/>
  </g>
</svg>